<?xml version="1.0" encoding="UTF-8" standalone="no"?>
<svg
   width="100%"
   height="100%"
   xmlns:dc="http://purl.org/dc/elements/1.1/"
   xmlns:cc="http://creativecommons.org/ns#"
   xmlns:rdf="http://www.w3.org/1999/02/22-rdf-syntax-ns#"
   xmlns:svg="http://www.w3.org/2000/svg"
   xmlns="http://www.w3.org/2000/svg"
   xmlns:sodipodi="http://sodipodi.sourceforge.net/DTD/sodipodi-0.dtd"
   xmlns:inkscape="http://www.inkscape.org/namespaces/inkscape"
   height="144.87279"
   width="134.62074"
   viewBox="0 0 134.62074 144.87279"
   preserveAspectRatio="none"
   version="1.1"
   id="svg4"
   sodipodi:docname="blob.svg"
   inkscape:version="0.92.4 (5da689c313, 2019-01-14)">
  <metadata
     id="metadata10">
    <rdf:RDF>
      <cc:Work
         rdf:about="">
        <dc:format>image/svg+xml</dc:format>
        <dc:type
           rdf:resource="http://purl.org/dc/dcmitype/StillImage" />
        <dc:title></dc:title>
      </cc:Work>
    </rdf:RDF>
  </metadata>
  <defs
     id="defs8" />
  <sodipodi:namedview
     pagecolor="#ffffff"
     bordercolor="#666666"
     borderopacity="1"
     objecttolerance="10"
     gridtolerance="10"
     guidetolerance="10"
     inkscape:pageopacity="0"
     inkscape:pageshadow="2"
     inkscape:window-width="1920"
     inkscape:window-height="1027"
     id="namedview6"
     showgrid="false"
     fit-margin-top="0"
     fit-margin-left="0"
     fit-margin-right="0"
     fit-margin-bottom="0"
     inkscape:zoom="1.18"
     inkscape:cx="63.238845"
     inkscape:cy="59.21127"
     inkscape:window-x="-8"
     inkscape:window-y="-8"
     inkscape:window-maximized="1"
     inkscape:current-layer="svg4" />
  <path
     d="m 90.438845,33.761521 c 9.5,10.3 19.699995,14.6 26.999995,22.3 7.2,7.6 11.4,18.6 14.4,31.3 3,12.699999 4.7,27.199999 -0.9,37.599999 -5.7,10.4 -18.6,16.9 -31.099995,19 -12.5,2.2 -24.6,0 -35.3,-2.2 -10.8,-2.2 -20.2,-4.6 -29.5,-8.6 -9.3,-4 -18.4,-9.7 -24.6,-17.9 -6.3,-8.2 -9.60000003,-18.899999 -10.30000003,-29.999999 -0.7,-11.1 1.30000003,-22.6 4.80000003,-35.6 3.5,-12.9 8.5,-27.2 18.5,-37.2 10,-10.0000005 24.9,-15.7000005 36.8,-10.5000005 11.8,5.3 20.7,21.5000005 30.2,31.8000005 z"
     id="path2"
     inkscape:connector-curvature="0"
     style="fill:#ff0066" />
</svg>