<?xml version="1.0" standalone="no"?>
<svg height="80%" width="80%" viewBox="0 0 200 200" xmlns="http://www.w3.org/2000/svg" preserveAspectRatio="xMidYMid meet">
  <path fill="#FF0066" d="M27.2,-51.9C36.7,-41.6,46.9,-37.3,54.2,-29.6C61.4,-22,65.6,-11,68.6,1.7C71.6,14.4,73.3,28.9,67.7,39.3C62,49.7,49.1,56.2,36.6,58.3C24.1,60.5,12,58.3,1.3,56.1C-9.5,53.9,-18.9,51.5,-28.2,47.5C-37.5,43.5,-46.6,37.8,-52.8,29.6C-59.1,21.4,-62.4,10.7,-63.1,-0.4C-63.8,-11.5,-61.8,-23,-58.3,-36C-54.8,-48.9,-49.8,-63.2,-39.8,-73.2C-29.8,-83.2,-14.9,-88.9,-3,-83.7C8.8,-78.4,17.7,-62.2,27.2,-51.9Z" transform="translate(100 100)" />
</svg>
