<svg width="134.62074" height="144.87279" xmlns="http://www.w3.org/2000/svg" xmlns:undefined="http://sodipodi.sourceforge.net/DTD/sodipodi-0.dtd" xmlns:undefined="http://www.inkscape.org/namespaces/inkscape" version="1.1" preserveAspectRatio="none">
 <metadata id="metadata10">image/svg+xml</metadata>

 <g>
  <title>Layer 1</title>
  <path fill="#8B72B6"  id="path2" d="m90.43885,33.76152c9.5,10.3 19.69999,14.6 26.99999,22.3c7.2,7.6 11.4,18.6 14.4,31.3c3,12.7 4.7,27.2 -0.9,37.6c-5.7,10.4 -18.6,16.9 -31.1,19c-12.5,2.2 -24.6,0 -35.3,-2.2c-10.8,-2.2 -20.2,-4.6 -29.5,-8.6c-9.3,-4 -18.4,-9.7 -24.6,-17.9c-6.3,-8.2 -9.6,-18.9 -10.3,-30c-0.7,-11.1 1.3,-22.6 4.8,-35.6c3.5,-12.9 8.5,-27.2 18.5,-37.2c10,-10 24.9,-15.7 36.8,-10.5c0.8,5.3 40.7,1.5 60.2,60.8l-29.99999,-29z"/>
  <path id="svg_1" d="m60.06248,2.06234" opacity="NaN" stroke="#000" fill="#fff"/>
  <path id="svg_3" d="m60.11532,2.04844c46.54383,11.76463 49.77911,33.38215 49.77911,33.45568" fill="#8B72B6"/>
  <path id="svg_4" d="m110.04058,35.37814c16.42384,25.0331 18.27814,39.86754 18.1713,39.85363" fill="#8B72B6"/>
  <path d="m91.10019,33.39138c-0.13245,0.13245 -0.10202,0.26844 -0.13245,0.39735c-0.06805,0.28824 -0.2649,0.39735 -0.2649,0.2649c0,-0.13245 0.10249,-0.90533 0.7947,-1.19205c0.12237,-0.05069 0.13245,0.2649 0.13245,0.5298c0,0.2649 -0.16215,0.78183 -0.2649,1.0596c-0.18947,0.51219 -0.28441,0.63932 -0.13245,0.5298c0.24026,-0.17317 0.70332,-0.44204 1.05961,-0.66225c0.15934,-0.09848 0.2649,-0.13245 0.2649,0c0,0.2649 -0.01357,0.70482 -0.39735,1.5894c-0.3074,0.7085 -0.77454,1.48803 -0.5298,1.58941c0.34611,0.14336 0.4168,-0.64414 0.66225,-0.92715c0.43391,-0.5003 0.63855,-1.36406 1.0596,-1.5894c0.11678,-0.0625 0.13245,0.13245 0.13245,0.7947c0,0.7947 0.11221,1.59488 0.2649,2.11921c0.1171,0.40214 0.13245,0.66225 0.13245,0.5298l0,-0.5298l0,-0.2649l0,-0.13245" id="svg_5" fill="none"/>
  <path d="m94.5439,38.29205c-0.13245,0 -0.13245,-0.13245 -0.13245,-0.2649c0,-0.13245 -0.13245,-0.2649 -0.2649,-0.5298c-0.13245,-0.2649 -0.32038,-0.58528 -0.5298,-0.7947c-0.20942,-0.20942 -0.45214,-0.21527 -0.92715,-0.7947c-0.30276,-0.36931 -0.6855,-0.54276 -0.5298,-0.7947c0.06963,-0.11267 0.14751,0.11821 0.39735,0.39735c0.56561,0.63194 1.0596,1.45695 1.3245,1.98676l0.13245,0.2649l0,0.13245l0,0.13245" id="svg_6" fill="none"/>
  <path d="m92.02734,35.11324c-92.02734,-35.11324 -92.02734,-35.11324 -92.02734,-35.11324l92.02734,35.24569l0,0.13245l0.13245,0.13245" id="svg_7" fill="none"/>
  <path d="m93.21939,36.30529c0.13245,0 0.13245,0.13245 0.2649,0.13245l0,0.13245l0.13245,0" id="svg_8" fill="none"/>
  <path d="m93.88165,36.83509c0.13245,0 0.2649,0 0.2649,0.13245l0.13245,0.13245" id="svg_9" fill="none"/>
  <ellipse ry="5.89404" rx="6.68874" id="svg_10" cy="37.03377" cx="93.15317" fill="#8B72B6"/>
  <ellipse ry="1.0596" rx="2.51656" id="svg_11" cy="3.85497" cx="61.03397" fill="#8B72B6"/>
  <ellipse ry="1.19205" rx="1.3245" id="svg_13" cy="3.19272" cx="60.23927" fill="#8B72B6"/>
  <ellipse ry="6.82119" rx="3.97351" id="svg_14" cy="38.49072" cx="106.33197" fill="#8B72B6"/>
  <ellipse ry="1.45695" rx="1.3245" id="svg_15" cy="37.36489" cx="107.52403" fill="#8B72B6"/>
  <rect id="svg_16" height="1.8543" width="8.60927" y="36.96754" x="98.91476" opacity="NaN" fill="#8B72B6"/>
  <path id="svg_17" d="m107.91392,62.21419l0,-24.63575l15.36423,24.63575l-15.36423,0z" fill="#8B72B6"/>
  <path id="svg_18" d="m108.96823,55.86386l0,-19.73509l11.78808,19.73509l-11.78808,0z" fill="#8B72B6"/>
  <path id="svg_19" d="m109.2318,46.06651l0,-10.72847l6.49007,10.72847l-6.49007,0z" fill="#8B72B6"/>
  <path transform="rotate(60 107.535 39.3175)" id="svg_28" d="m119.78631,35.74134c0,0.98753 -5.48525,1.78808 -12.25165,1.78808m12.25165,-1.78808l0,0c0,0.98753 -5.48525,1.78808 -12.25165,1.78808c-6.7664,0 -12.25165,-0.80055 -12.25165,-1.78808m0,0l0,0c0,-0.98753 5.48525,-1.78808 12.25165,-1.78808c6.7664,0 12.25165,0.80055 12.25165,1.78808l0,7.15232c0,0.98753 -5.48525,1.78808 -12.25165,1.78808c-6.7664,0 -12.25165,-0.80055 -12.25165,-1.78808l0,-7.15232z" fill="#8B72B6"/>
  <path transform="rotate(66 115.879 54.4168)" id="svg_32" d="m128.13068,50.84067c0,0.98753 -5.48525,1.78808 -12.25166,1.78808m12.25166,-1.78808l0,0c0,0.98753 -5.48525,1.78808 -12.25166,1.78808c-6.76639,0 -12.25164,-0.80055 -12.25164,-1.78808m0,0l0,0c0,-0.98753 5.48525,-1.78808 12.25164,-1.78808c6.76641,0 12.25166,0.80055 12.25166,1.78808l0,7.15232c0,0.98753 -5.48525,1.78807 -12.25166,1.78807c-6.76639,0 -12.25164,-0.80054 -12.25164,-1.78807l0,-7.15232z" fill="#8B72B6"/>
 </g>
</svg>